<svg id="Layer_1" data-name="Layer 1" xmlns="http://www.w3.org/2000/svg" viewBox="0 0 528 153"><defs><style>.cls-1{fill:#fff;}.cls-2{fill:#c92366;}</style></defs><path class="cls-1" d="M74.695,32.85a27.375,27.375,0,0,1,10.852,2.182A28,28,0,0,1,94.447,41a28.8,28.8,0,0,1,6.029,8.9,27.683,27.683,0,0,1,0,21.819,28.771,28.771,0,0,1-6.029,8.9,27.96,27.96,0,0,1-8.9,5.972,27.356,27.356,0,0,1-10.852,2.181H53.8v24.347H43V32.85Zm0,45.361a16.229,16.229,0,0,0,6.661-1.378A17.959,17.959,0,0,0,86.811,73.1a16.969,16.969,0,0,0,3.674-5.512,17.556,17.556,0,0,0,1.321-6.833,17.288,17.288,0,0,0-1.321-6.719,17.008,17.008,0,0,0-3.674-5.511,17.971,17.971,0,0,0-5.455-3.733,16.229,16.229,0,0,0-6.661-1.378H53.8v34.8Z"/><path class="cls-1" d="M118.793,113.122V32.505h9.761v80.617Z"/><path class="cls-1" d="M197.915,58v55.122h-9.876v-6.431a25.982,25.982,0,0,1-30.03,6.2,27.361,27.361,0,0,1-8.728-6.316,31.061,31.061,0,0,1,0-41.916,28.227,28.227,0,0,1,8.728-6.372,24.881,24.881,0,0,1,10.737-2.355,25.552,25.552,0,0,1,10.68,2.24,26.247,26.247,0,0,1,8.613,6.259V58ZM169.55,105.658a16.535,16.535,0,0,0,7.178-1.608,19.448,19.448,0,0,0,5.913-4.307,19.7,19.7,0,0,0,3.962-6.374,21.947,21.947,0,0,0,0-15.618,19.736,19.736,0,0,0-3.962-6.373,19.486,19.486,0,0,0-5.913-4.306,16.83,16.83,0,0,0-14.355,0,19.465,19.465,0,0,0-5.915,4.306,20.956,20.956,0,0,0,0,28.365,19.427,19.427,0,0,0,5.915,4.307A16.528,16.528,0,0,0,169.55,105.658Z"/><path class="cls-1" d="M241.438,65.465a19.287,19.287,0,0,0-7.81,1.607,20.394,20.394,0,0,0-6.316,4.249,19.6,19.6,0,0,0-4.191,6.316,20.431,20.431,0,0,0,0,15.617,20.943,20.943,0,0,0,4.191,6.431,19.613,19.613,0,0,0,14.126,5.973,18.489,18.489,0,0,0,9.7-2.584,20.872,20.872,0,0,0,6.949-6.719l8.153,5.284a29.648,29.648,0,0,1-52.2-4.594A29.37,29.37,0,0,1,220.415,64.6a30.807,30.807,0,0,1,9.417-6.316,29.44,29.44,0,0,1,36.408,11.2l-8.04,5.282a19.848,19.848,0,0,0-7-6.776A19.162,19.162,0,0,0,241.438,65.465Z"/><path class="cls-1" d="M284.043,88.2a21.98,21.98,0,0,0,2.009,6.89,19.363,19.363,0,0,0,3.9,5.514,18.655,18.655,0,0,0,5.4,3.673,15.526,15.526,0,0,0,6.489,1.38,18.581,18.581,0,0,0,9.588-2.528,19.945,19.945,0,0,0,6.949-6.775l8.038,5.168a29.532,29.532,0,0,1-10.335,9.933,27.865,27.865,0,0,1-14.24,3.732,25.273,25.273,0,0,1-10.163-2.066,27.531,27.531,0,0,1-8.441-5.686A30.342,30.342,0,0,1,274.4,88.2c0-.381-.019-.8-.057-1.263s-.058-.918-.058-1.377a28.255,28.255,0,0,1,.8-6.89,29.155,29.155,0,0,1,3.559-9.015,29.992,29.992,0,0,1,6.029-7.235,26.842,26.842,0,0,1,7.924-4.766,25.665,25.665,0,0,1,18.489,0,26.863,26.863,0,0,1,7.924,4.766,30.169,30.169,0,0,1,6.03,7.235A29.264,29.264,0,0,1,328.6,78.67a28.448,28.448,0,0,1,.8,6.89v1.377a6.522,6.522,0,0,1-.114,1.263Zm34.681-9.53a20.2,20.2,0,0,0-6.489-9.532,16.535,16.535,0,0,0-20.785,0,20.164,20.164,0,0,0-6.489,9.532Z"/><path class="cls-2" d="M382,30.668A40.9,40.9,0,0,1,398.42,34a42.593,42.593,0,0,1,22.51,22.507,42.244,42.244,0,0,1-68.847,46.281,43.441,43.441,0,0,1-9.014-13.437,42.149,42.149,0,0,1,0-32.844,43.479,43.479,0,0,1,9.014-13.435A42.227,42.227,0,0,1,365.463,34,41.168,41.168,0,0,1,382,30.668Zm0,73.956a30.334,30.334,0,0,0,12.23-2.47,31.361,31.361,0,0,0,9.932-6.775,32.214,32.214,0,0,0,6.72-10.105,31.212,31.212,0,0,0,2.467-12.345,30.812,30.812,0,0,0-2.467-12.289A32.061,32.061,0,0,0,394.23,43.76,29.793,29.793,0,0,0,382,41.233a30.208,30.208,0,0,0-12.289,2.527,31.944,31.944,0,0,0-9.99,6.832A32.34,32.34,0,0,0,353,60.64a30.741,30.741,0,0,0-2.469,12.289A31.141,31.141,0,0,0,353,85.274a32.117,32.117,0,0,0,6.718,10.105,31.14,31.14,0,0,0,9.99,6.775A30.736,30.736,0,0,0,382,104.624Z"/><path class="cls-2" d="M463.878,65.693a57.038,57.038,0,0,1,14.182,5.283,33.325,33.325,0,0,1,8.556,6.6,19.419,19.419,0,0,1,4.192,7.063,23.163,23.163,0,0,1,1.09,6.776,19.369,19.369,0,0,1-2.3,9.244,24.46,24.46,0,0,1-6.258,7.521,31.108,31.108,0,0,1-9.3,5.111,33.888,33.888,0,0,1-11.425,1.894,35.043,35.043,0,0,1-10.681-1.607,29.922,29.922,0,0,1-8.9-4.478,26.41,26.41,0,0,1-6.372-6.719,19.5,19.5,0,0,1-3.1-8.325l9.532-1.953a16.673,16.673,0,0,0,6.832,8.9,21.756,21.756,0,0,0,12.691,3.618,24.5,24.5,0,0,0,7.177-1.034,19.783,19.783,0,0,0,5.915-2.871,14.643,14.643,0,0,0,3.961-4.192,9.629,9.629,0,0,0,1.435-5.109q0-10.565-19.751-15.5-4.71-1.146-9.532-2.642a35.115,35.115,0,0,1-8.669-3.961,20.9,20.9,0,0,1-6.316-6.259,17.329,17.329,0,0,1-2.47-9.645,21.327,21.327,0,0,1,1.952-9.131A20.609,20.609,0,0,1,441.83,37.1a26.541,26.541,0,0,1,8.612-4.708,34.34,34.34,0,0,1,11.139-1.723,31.1,31.1,0,0,1,10.106,1.608,27.627,27.627,0,0,1,8.268,4.421,23.561,23.561,0,0,1,5.8,6.661,22.066,22.066,0,0,1,2.813,8.44l-9.53,2.067a15.809,15.809,0,0,0-5.742-9.072q-4.482-3.558-11.715-3.56-7.695,0-12,3.445a10.717,10.717,0,0,0-4.306,8.729,8.968,8.968,0,0,0,.747,3.732,7.537,7.537,0,0,0,2.754,3.042,25.717,25.717,0,0,0,5.627,2.7Q458.021,64.2,463.878,65.693Z"/></svg>