<svg id="Layer_1" data-name="Layer 1" xmlns="http://www.w3.org/2000/svg" viewBox="0 0 528 153"><defs><style>.cls-1{fill:#0e132a;}.cls-2{fill:#c92366;}</style></defs><path class="cls-1" d="M74.695,32.85a27.377,27.377,0,0,1,10.852,2.182A28.005,28.005,0,0,1,94.447,41a28.8,28.8,0,0,1,6.029,8.9,27.686,27.686,0,0,1,0,21.819,28.768,28.768,0,0,1-6.029,8.9,27.972,27.972,0,0,1-8.9,5.972,27.342,27.342,0,0,1-10.852,2.181H53.8v24.347H43V32.85Zm0,45.361a16.23,16.23,0,0,0,6.661-1.378A17.956,17.956,0,0,0,86.811,73.1a16.969,16.969,0,0,0,3.674-5.512,17.556,17.556,0,0,0,1.321-6.833,17.278,17.278,0,0,0-1.321-6.719,17,17,0,0,0-3.674-5.511,17.977,17.977,0,0,0-5.455-3.733,16.23,16.23,0,0,0-6.661-1.378H53.8v34.8Z"/><path class="cls-1" d="M118.793,113.122V32.505h9.761v80.617Z"/><path class="cls-1" d="M197.915,58v55.122h-9.876v-6.431a26.26,26.26,0,0,1-8.613,6.259,26.421,26.421,0,0,1-21.417-.059,27.356,27.356,0,0,1-8.728-6.316,31.061,31.061,0,0,1,0-41.916,28.226,28.226,0,0,1,8.728-6.372,24.875,24.875,0,0,1,10.737-2.355,25.555,25.555,0,0,1,10.68,2.24,26.245,26.245,0,0,1,8.613,6.259V58ZM169.55,105.658a16.538,16.538,0,0,0,7.178-1.608,19.457,19.457,0,0,0,5.913-4.307,19.716,19.716,0,0,0,3.962-6.374,21.951,21.951,0,0,0,0-15.618,19.743,19.743,0,0,0-3.962-6.373,19.488,19.488,0,0,0-5.913-4.306,16.832,16.832,0,0,0-14.355,0,19.46,19.46,0,0,0-5.915,4.306,20.957,20.957,0,0,0,0,28.365,19.43,19.43,0,0,0,5.915,4.307A16.527,16.527,0,0,0,169.55,105.658Z"/><path class="cls-1" d="M241.438,65.465a19.288,19.288,0,0,0-7.81,1.607,20.389,20.389,0,0,0-6.316,4.249,19.6,19.6,0,0,0-4.191,6.316,20.431,20.431,0,0,0,0,15.617,20.943,20.943,0,0,0,4.191,6.431,19.614,19.614,0,0,0,14.126,5.973,18.487,18.487,0,0,0,9.7-2.584,20.87,20.87,0,0,0,6.949-6.719l8.153,5.284a29.9,29.9,0,0,1-10.508,9.875,29.7,29.7,0,0,1-25.9,1.321,30.044,30.044,0,0,1-15.79-15.79,29.47,29.47,0,0,1,0-23.083,29.59,29.59,0,0,1,6.373-9.359,30.812,30.812,0,0,1,9.417-6.316,29.689,29.689,0,0,1,25.9,1.32,29.9,29.9,0,0,1,10.508,9.877L258.2,74.766a19.839,19.839,0,0,0-7-6.776A19.158,19.158,0,0,0,241.438,65.465Z"/><path class="cls-1" d="M284.043,88.2a21.972,21.972,0,0,0,2.009,6.89,19.348,19.348,0,0,0,3.9,5.514,18.666,18.666,0,0,0,5.4,3.673,15.523,15.523,0,0,0,6.489,1.38,18.583,18.583,0,0,0,9.588-2.528,19.943,19.943,0,0,0,6.949-6.775l8.038,5.168a29.532,29.532,0,0,1-10.335,9.933,27.873,27.873,0,0,1-14.24,3.732,25.27,25.27,0,0,1-10.163-2.066,27.534,27.534,0,0,1-8.441-5.686A30.343,30.343,0,0,1,274.4,88.2c0-.381-.019-.8-.057-1.263s-.058-.918-.058-1.377a28.24,28.24,0,0,1,.805-6.89,29.168,29.168,0,0,1,3.559-9.015,30.021,30.021,0,0,1,6.029-7.235,26.835,26.835,0,0,1,7.924-4.766,25.661,25.661,0,0,1,18.489,0,26.874,26.874,0,0,1,7.924,4.766,30.163,30.163,0,0,1,6.03,7.235,29.243,29.243,0,0,1,3.559,9.015,28.439,28.439,0,0,1,.8,6.89v1.377a6.478,6.478,0,0,1-.114,1.263Zm34.681-9.53a20.2,20.2,0,0,0-6.489-9.532,16.535,16.535,0,0,0-20.785,0,20.166,20.166,0,0,0-6.489,9.532Z"/><path class="cls-2" d="M382,30.668A40.9,40.9,0,0,1,398.42,34a42.593,42.593,0,0,1,22.51,22.507,42.169,42.169,0,0,1,0,32.844,42.581,42.581,0,0,1-22.51,22.508,42.436,42.436,0,0,1-32.957,0,42.183,42.183,0,0,1-13.38-9.071,43.448,43.448,0,0,1-9.014-13.437,42.146,42.146,0,0,1,0-32.844,43.474,43.474,0,0,1,9.014-13.435A42.235,42.235,0,0,1,365.463,34,41.169,41.169,0,0,1,382,30.668Zm0,73.956a30.337,30.337,0,0,0,12.23-2.47,31.361,31.361,0,0,0,9.932-6.775,32.214,32.214,0,0,0,6.72-10.105,31.22,31.22,0,0,0,2.467-12.345,30.815,30.815,0,0,0-2.467-12.289A32.061,32.061,0,0,0,394.23,43.76,29.8,29.8,0,0,0,382,41.233a30.194,30.194,0,0,0-12.289,2.527,31.932,31.932,0,0,0-9.99,6.832A32.337,32.337,0,0,0,353,60.64a30.748,30.748,0,0,0-2.469,12.289A31.152,31.152,0,0,0,353,85.274a32.124,32.124,0,0,0,6.718,10.105,31.138,31.138,0,0,0,9.99,6.775A30.742,30.742,0,0,0,382,104.624Z"/><path class="cls-2" d="M463.878,65.693a57.043,57.043,0,0,1,14.182,5.283,33.349,33.349,0,0,1,8.556,6.6,19.411,19.411,0,0,1,4.192,7.063,23.153,23.153,0,0,1,1.09,6.776,19.372,19.372,0,0,1-2.3,9.244,24.455,24.455,0,0,1-6.258,7.521,31.118,31.118,0,0,1-9.3,5.111,33.891,33.891,0,0,1-11.425,1.894,35.041,35.041,0,0,1-10.681-1.607,29.916,29.916,0,0,1-8.9-4.478,26.405,26.405,0,0,1-6.372-6.719,19.5,19.5,0,0,1-3.1-8.325l9.532-1.953a16.671,16.671,0,0,0,6.832,8.9,21.752,21.752,0,0,0,12.691,3.618,24.5,24.5,0,0,0,7.177-1.034,19.78,19.78,0,0,0,5.915-2.871,14.644,14.644,0,0,0,3.961-4.192,9.632,9.632,0,0,0,1.435-5.109q0-10.565-19.751-15.5-4.71-1.146-9.532-2.642a35.13,35.13,0,0,1-8.669-3.961,20.914,20.914,0,0,1-6.316-6.259,17.325,17.325,0,0,1-2.47-9.645,21.329,21.329,0,0,1,1.952-9.131A20.606,20.606,0,0,1,441.83,37.1a26.537,26.537,0,0,1,8.612-4.708,34.343,34.343,0,0,1,11.139-1.723,31.1,31.1,0,0,1,10.106,1.608,27.622,27.622,0,0,1,8.268,4.421,23.549,23.549,0,0,1,5.8,6.661,22.07,22.07,0,0,1,2.813,8.44l-9.53,2.067a15.809,15.809,0,0,0-5.742-9.072q-4.482-3.558-11.715-3.56-7.695,0-12,3.445a10.715,10.715,0,0,0-4.306,8.729,8.975,8.975,0,0,0,.747,3.732,7.537,7.537,0,0,0,2.754,3.042,25.736,25.736,0,0,0,5.627,2.7Q458.021,64.2,463.878,65.693Z"/></svg>