<svg id="Layer_1" data-name="Layer 1" xmlns="http://www.w3.org/2000/svg" viewBox="0 0 37.48 15.715"><defs><style>.cls-1{opacity:0.28;}.cls-2{fill:#fff;}.cls-3{fill:#ffdfe7;}</style></defs><title>ACA_logo_Coloured</title><g class="cls-1"><path class="cls-2" d="M22.418,1.056A9.218,9.218,0,0,0,19.644.638a6.576,6.576,0,0,0-4.972,2.049,7.553,7.553,0,0,0-1.956,5.444,7.034,7.034,0,0,0,1.8,5.016,6.115,6.115,0,0,0,4.665,1.922,9.152,9.152,0,0,0,3.261-.593.424.424,0,0,0-.3-.792h0a8.012,8.012,0,0,1-2.879.5,5.27,5.27,0,0,1-3.986-1.654,6.258,6.258,0,0,1-1.571-4.5A6.705,6.705,0,0,1,15.351,3.29a5.545,5.545,0,0,1,4.271-1.781,7.488,7.488,0,0,1,2.525.432.423.423,0,0,0,.543-.253.418.418,0,0,0,.026-.145V1.451A.423.423,0,0,0,22.418,1.056Z"/><path class="cls-2" d="M7.028.773a.538.538,0,0,0-.5-.351H6.274a.539.539,0,0,0-.5.349L.446,14.882a.539.539,0,0,0,.315.694.533.533,0,0,0,.185.035h0a.537.537,0,0,0,.505-.353L2.929,11.24a.539.539,0,0,1,.506-.353h5.84a.537.537,0,0,1,.5.353l1.478,4.019a.538.538,0,0,0,.506.352h.024a.538.538,0,0,0,.538-.538h0a.5.5,0,0,0-.034-.188Z"/><path class="cls-2" d="M37.446,14.813,32.182.7a.538.538,0,0,0-.5-.351h-.25a.536.536,0,0,0-.5.349L25.6,14.811a.538.538,0,0,0,1.009.376h0l1.478-4.018a.538.538,0,0,1,.5-.353h5.837a.538.538,0,0,1,.5.353l1.478,4.019a.538.538,0,0,0,.506.352h.024A.538.538,0,0,0,37.48,15v0A.506.506,0,0,0,37.446,14.813Z"/></g><path class="cls-3" d="M14.46,2.234A8.223,8.223,0,0,0,12.331,8.16,7.656,7.656,0,0,0,14.3,13.62a6.653,6.653,0,0,0,5.079,2.091,9.946,9.946,0,0,0,3.55-.645.462.462,0,0,0,.3-.431h0A.462.462,0,0,0,22.6,14.2a8.707,8.707,0,0,1-3.134.544,5.733,5.733,0,0,1-4.338-1.8,6.8,6.8,0,0,1-1.71-4.9,7.3,7.3,0,0,1,1.79-5.158A6.037,6.037,0,0,1,19.856.951a8.143,8.143,0,0,1,2.748.471.46.46,0,0,0,.591-.275.48.48,0,0,0,.028-.159V.9A.461.461,0,0,0,22.9.462,10.113,10.113,0,0,0,19.871,0,7.158,7.158,0,0,0,14.46,2.234Z"/><path class="cls-2" d="M11.881,14.72,6.617.609a.54.54,0,0,0-.5-.351h-.16V10.723H8.864a.542.542,0,0,1,.5.352l1.478,4.019a.537.537,0,0,0,.5.353h.024a.538.538,0,0,0,.539-.537h0A.53.53,0,0,0,11.881,14.72Z"/><path class="cls-3" d="M5.862.258a.538.538,0,0,0-.5.349L.035,14.718a.54.54,0,0,0,.314.7.533.533,0,0,0,.186.034h0a.538.538,0,0,0,.5-.353l1.478-4.019a.537.537,0,0,1,.5-.352H5.944V.258Z"/><path class="cls-3" d="M36.983,14.72,31.717.609a.54.54,0,0,0-.5-.351h-.155V10.723h2.907a.539.539,0,0,1,.5.352l1.478,4.019a.537.537,0,0,0,.5.353h.024a.538.538,0,0,0,.541-.535v0A.558.558,0,0,0,36.983,14.72Z"/><path class="cls-2" d="M30.964.258a.539.539,0,0,0-.5.349L25.137,14.718a.54.54,0,0,0,.314.7.533.533,0,0,0,.186.034h0a.538.538,0,0,0,.5-.353l1.478-4.019a.538.538,0,0,1,.505-.352h2.931V.258Z"/></svg>